<svg xmlns="http://www.w3.org/2000/svg" width="33.238" height="33.377" viewBox="0 0 33.238 33.377">
  <g id="XymI2A.tif" transform="translate(-1192.502 1939.439)">
    <g id="Group_25" data-name="Group 25" transform="translate(1192.502 -1939.439)">
      <path id="Path_88" data-name="Path 88" d="M1209.183-1939.439a16.391,16.391,0,0,1,7.9,2,16.821,16.821,0,0,1,3.33,2.411,16.5,16.5,0,0,1,3.716,5.035,15.869,15.869,0,0,1,1.417,4.7,15.98,15.98,0,0,1,.182,2.844,16.888,16.888,0,0,1-1.056,5.348,16.521,16.521,0,0,1-2.774,4.782,16.434,16.434,0,0,1-3.242,2.981,16.622,16.622,0,0,1-5.746,2.573,19.574,19.574,0,0,1-2.654.387,14.678,14.678,0,0,1-2.592-.029,15.962,15.962,0,0,1-4.736-1.159c-.14-.057-.282-.112-.418-.178a2.016,2.016,0,0,0-2.078-.2c-1.891.5-3.785.992-5.677,1.49-.418.11-.835.225-1.251.343a.722.722,0,0,1-.782-.151.771.771,0,0,1-.182-.808c.664-2.419,1.311-4.842,2-7.253a1.336,1.336,0,0,0-.118-1.075,16.431,16.431,0,0,1-1.649-5.236,14.9,14.9,0,0,1-.136-3.11,16.449,16.449,0,0,1,1.855-6.766,16.75,16.75,0,0,1,2.722-3.78,16.764,16.764,0,0,1,4.849-3.534,15.688,15.688,0,0,1,4.666-1.425A16.858,16.858,0,0,1,1209.183-1939.439Zm-.227.715a10.74,10.74,0,0,0-2.6.229,16.033,16.033,0,0,0-4.98,1.815,16.179,16.179,0,0,0-4.449,3.746,15.407,15.407,0,0,0-2.5,4.236,15.374,15.374,0,0,0-1.072,4.722,15.805,15.805,0,0,0,.322,4.454,15.587,15.587,0,0,0,1.486,4.043,1.084,1.084,0,0,1,.172.9c-.7,2.454-1.362,4.917-2.038,7.377-.122.444-.117.451.32.339.021-.005.04-.017.061-.022,2.395-.624,4.795-1.23,7.181-1.886a1.833,1.833,0,0,1,1.433.152,15.481,15.481,0,0,0,5.95,1.565,14.9,14.9,0,0,0,3.623-.2,15.96,15.96,0,0,0,5.333-1.97,15.838,15.838,0,0,0,4.1-3.461,15.8,15.8,0,0,0,2.639-4.452,15.216,15.216,0,0,0,1.077-5.5c0-.486-.022-.973-.047-1.459a14.964,14.964,0,0,0-.837-4.048,15.229,15.229,0,0,0-3.122-5.277,15.752,15.752,0,0,0-4.337-3.431A15.681,15.681,0,0,0,1208.956-1938.724Z" transform="translate(-1192.502 1939.439)" fill="#e4e4e5"/>
      <path id="Path_89" data-name="Path 89" d="M1213.823-1934.054a15.682,15.682,0,0,1,7.72,1.862,15.751,15.751,0,0,1,4.337,3.431,15.227,15.227,0,0,1,3.122,5.277,14.969,14.969,0,0,1,.837,4.048c.026.487.049.973.047,1.459a15.221,15.221,0,0,1-1.077,5.5,15.8,15.8,0,0,1-2.639,4.452,15.834,15.834,0,0,1-4.1,3.461,15.957,15.957,0,0,1-5.333,1.97,14.9,14.9,0,0,1-3.623.2,15.48,15.48,0,0,1-5.95-1.565,1.833,1.833,0,0,0-1.433-.152c-2.386.656-4.786,1.262-7.181,1.886-.021.005-.04.017-.061.022-.437.111-.442.1-.32-.339.676-2.46,1.34-4.923,2.038-7.377a1.083,1.083,0,0,0-.172-.9,15.591,15.591,0,0,1-1.485-4.043,15.8,15.8,0,0,1-.322-4.454,15.374,15.374,0,0,1,1.072-4.722,15.41,15.41,0,0,1,2.5-4.236,16.175,16.175,0,0,1,4.449-3.746,16.032,16.032,0,0,1,4.98-1.815A10.739,10.739,0,0,1,1213.823-1934.054Zm.134,2.674a10.09,10.09,0,0,0-1.934.154,12.994,12.994,0,0,0-8.082,4.592,12.815,12.815,0,0,0-3.047,8.028,12.928,12.928,0,0,0,2.135,7.584.7.7,0,0,1,.09.637c-.39,1.388-.763,2.78-1.141,4.171-.093.343-.092.344.262.251,1.415-.37,2.833-.733,4.244-1.118a.856.856,0,0,1,.729.108,12.947,12.947,0,0,0,9.484,1.645,13.166,13.166,0,0,0,10.33-15.025A13.173,13.173,0,0,0,1213.957-1931.38Z" transform="translate(-1197.369 1934.769)" fill="#fefefe"/>
      <path id="Path_90" data-name="Path 90" d="M1232.515-1913.5a13.173,13.173,0,0,1,13.071,11.027,13.166,13.166,0,0,1-10.33,15.025,12.946,12.946,0,0,1-9.484-1.645.855.855,0,0,0-.73-.108c-1.411.385-2.829.748-4.244,1.118-.354.093-.355.092-.262-.251.378-1.391.751-2.784,1.141-4.171a.7.7,0,0,0-.09-.637,12.928,12.928,0,0,1-2.135-7.584,12.815,12.815,0,0,1,3.047-8.028,12.993,12.993,0,0,1,8.082-4.592A10.07,10.07,0,0,1,1232.515-1913.5Zm4.382,20.751a5.285,5.285,0,0,0,.549-.03,3.388,3.388,0,0,0,3.188-3.469.519.519,0,0,0-.276-.509c-1.086-.544-2.161-1.111-3.287-1.568-.454-.184-.6-.128-.887.268-.374.508-.783.986-1.19,1.466a.585.585,0,0,1-.727.184,10.83,10.83,0,0,1-5.5-4.72.575.575,0,0,1,.053-.743,13.965,13.965,0,0,0,1-1.325.791.791,0,0,0,.066-.8c-.4-.939-.8-1.877-1.169-2.826a1.081,1.081,0,0,0-1.224-.829,3.141,3.141,0,0,1-.456,0,1.366,1.366,0,0,0-1.024.424,4.947,4.947,0,0,0-.82,1.008,4.729,4.729,0,0,0-.266,4.2,12.131,12.131,0,0,0,1.75,2.961,14.5,14.5,0,0,0,7.313,5.658A9.658,9.658,0,0,0,1236.9-1892.752Z" transform="translate(-1215.927 1916.892)" fill="#64b061"/>
      <path id="Path_91" data-name="Path 91" d="M1270.94-1853.845a9.66,9.66,0,0,1-2.91-.651,14.5,14.5,0,0,1-7.313-5.658,12.136,12.136,0,0,1-1.75-2.961,4.729,4.729,0,0,1,.266-4.2,4.956,4.956,0,0,1,.82-1.009,1.365,1.365,0,0,1,1.024-.423,3.156,3.156,0,0,0,.456,0,1.081,1.081,0,0,1,1.224.829c.373.949.772,1.887,1.169,2.826a.791.791,0,0,1-.066.8,13.947,13.947,0,0,1-1,1.326.575.575,0,0,0-.053.743,10.83,10.83,0,0,0,5.5,4.72.585.585,0,0,0,.727-.184c.407-.48.817-.958,1.19-1.466.291-.4.432-.453.887-.268,1.126.457,2.2,1.025,3.287,1.569a.519.519,0,0,1,.276.509,3.387,3.387,0,0,1-3.188,3.469A5.317,5.317,0,0,1,1270.94-1853.845Z" transform="translate(-1249.971 1877.986)" fill="#fdfefd"/>
    </g>
  </g>
</svg>
